<svg width="34" height="42" viewBox="0 0 34 42" fill="none" xmlns="http://www.w3.org/2000/svg">
<path d="M28.3977 22.6204C28.4392 19.4252 30.1717 16.4018 32.9202 14.7282C31.1863 12.2756 28.2821 10.7206 25.2607 10.6269C22.038 10.2919 18.9138 12.5369 17.2716 12.5369C15.5976 12.5369 13.0692 10.6602 10.3465 10.7157C6.7976 10.8293 3.48912 12.8277 1.7625 15.9008C-1.94906 22.2654 0.819425 31.6193 4.37479 36.7639C6.15361 39.2831 8.23254 42.0972 10.9528 41.9974C13.6147 41.888 14.6089 40.3162 17.822 40.3162C21.0054 40.3162 21.9381 41.9974 24.7136 41.9339C27.5699 41.888 29.3696 39.4035 31.086 36.8605C32.3641 35.0654 33.3475 33.0815 34 30.9823C30.6432 29.5761 28.4016 26.2302 28.3977 22.6204Z" fill="#0CC0DF"/>
<path d="M23.1553 7.24356C24.7127 5.3918 25.48 3.01167 25.2942 0.608643C22.9148 0.856164 20.7169 1.98249 19.1385 3.7632C17.595 5.50305 16.7917 7.84129 16.9436 10.1525C19.3238 10.1768 21.6638 9.08096 23.1553 7.24356Z" fill="#0CC0DF"/>
</svg>
