<svg width="81" height="80" viewBox="0 0 81 80" fill="none" xmlns="http://www.w3.org/2000/svg">
<path d="M12.6091 39.7484C8.0352 35.3812 10.0977 27.6841 16.2423 26.189L28.3899 23.2334C29.8765 22.8716 31.2282 22.0912 32.2847 20.9847L40.9182 11.9424C45.2853 7.36849 52.9824 9.43095 54.4775 15.5756L57.4332 27.7232C57.7949 29.2098 58.5753 30.5615 59.6818 31.618L68.7241 40.2515C73.298 44.6186 71.2356 52.3157 65.0909 53.8108L52.9433 56.7665C51.4567 57.1282 50.1051 57.9086 49.0485 59.0151L40.4151 68.0574C36.0479 72.6313 28.3508 70.5689 26.8557 64.4242L23.9001 52.2766C23.5384 50.79 22.758 49.4383 21.6514 48.3818L12.6091 39.7484Z" fill="#1877F2"/>
<path d="M50.6666 44.19C50.6666 47.83 48.4966 50 44.8566 50H43.6666C43.1166 50 42.6666 49.55 42.6666 49V43.23C42.6666 42.96 42.8866 42.73 43.1566 42.73L44.9166 42.7C45.0566 42.69 45.1766 42.59 45.2066 42.45L45.5566 40.54C45.5866 40.36 45.4466 40.19 45.2566 40.19L43.1266 40.22C42.8466 40.22 42.6266 40 42.6166 39.73L42.5766 37.28C42.5766 37.12 42.7066 36.98 42.8766 36.98L45.2766 36.94C45.4466 36.94 45.5766 36.81 45.5766 36.64L45.5366 34.24C45.5366 34.07 45.4066 33.94 45.2366 33.94L42.5366 33.98C40.8766 34.01 39.5566 35.37 39.5866 37.03L39.6366 39.78C39.6466 40.06 39.4266 40.28 39.1466 40.29L37.9466 40.31C37.7766 40.31 37.6466 40.44 37.6466 40.61L37.6766 42.51C37.6766 42.68 37.8066 42.81 37.9766 42.81L39.1766 42.79C39.4566 42.79 39.6766 43.01 39.6866 43.28L39.7766 48.98C39.7866 49.54 39.3366 50 38.7766 50H36.4766C32.8366 50 30.6666 47.83 30.6666 44.18V35.81C30.6666 32.17 32.8366 30 36.4766 30H44.8566C48.4966 30 50.6666 32.17 50.6666 35.81V44.19Z" fill="white"/>
</svg>
