<svg width="114" height="43" viewBox="0 0 114 43" fill="none" xmlns="http://www.w3.org/2000/svg">
<path d="M6.688 12.032V32H2.656V12.032H0.400002V8H2.704C2.768 6.464 3.2 5.088 4 3.872C4.832 2.656 5.92 1.712 7.264 1.04C8.608 0.367999 10.08 0.0319996 11.68 0.0319996V4.16C10.336 4.096 9.2 4.432 8.272 5.168C7.376 5.904 6.896 6.848 6.832 8H11.68V12.032H6.688ZM33.0588 32V28.352C32.0348 29.536 30.8508 30.48 29.5068 31.184C28.1628 31.888 26.7388 32.24 25.2348 32.24C23.5708 32.24 22.0028 31.936 20.5308 31.328C19.0908 30.72 17.8108 29.856 16.6908 28.736C15.5708 27.648 14.6908 26.368 14.0508 24.896C13.4428 23.392 13.1388 21.824 13.1388 20.192C13.1388 18.56 13.4428 17.008 14.0508 15.536C14.6908 14.032 15.5708 12.72 16.6908 11.6C17.8108 10.48 19.0908 9.616 20.5308 9.008C22.0028 8.4 23.5708 8.096 25.2348 8.096C26.7708 8.096 28.2108 8.416 29.5548 9.056C30.9308 9.696 32.0988 10.592 33.0588 11.744V8.576H37.3788V32H33.0588ZM25.2348 12.368C24.1788 12.368 23.1548 12.576 22.1628 12.992C21.2028 13.376 20.3708 13.92 19.6668 14.624C18.9628 15.328 18.4028 16.176 17.9868 17.168C17.6028 18.128 17.4108 19.136 17.4108 20.192C17.4108 21.248 17.6028 22.256 17.9868 23.216C18.4028 24.176 18.9628 25.008 19.6668 25.712C20.3708 26.416 21.2028 26.976 22.1628 27.392C23.1548 27.776 24.1788 27.968 25.2348 27.968C26.2908 27.968 27.2988 27.776 28.2588 27.392C29.2188 26.976 30.0508 26.416 30.7548 25.712C31.4588 25.008 32.0028 24.176 32.3868 23.216C32.8028 22.256 33.0108 21.248 33.0108 20.192C33.0108 19.136 32.8028 18.128 32.3868 17.168C32.0028 16.176 31.4588 15.328 30.7548 14.624C30.0508 13.92 29.2188 13.376 28.2588 12.992C27.2988 12.576 26.2908 12.368 25.2348 12.368ZM53.3242 15.152C53.2282 14.576 53.0202 14.032 52.7002 13.52C52.0922 12.464 50.8922 11.936 49.1002 11.936C48.1402 11.936 47.4042 12.048 46.8922 12.272C46.2202 12.528 45.7082 12.896 45.3562 13.376C45.0362 13.856 44.8762 14.384 44.8762 14.96C44.8762 15.664 45.1322 16.304 45.6442 16.88C46.1882 17.488 47.0682 17.808 48.2842 17.84C50.4282 17.936 52.1562 18.192 53.4682 18.608C54.8122 19.024 55.8362 19.744 56.5402 20.768C57.2762 21.792 57.6442 23.232 57.6442 25.088C57.6442 26.976 56.9242 28.608 55.4842 29.984C54.7802 30.656 53.9482 31.2 52.9882 31.616C52.0602 32.032 51.0842 32.24 50.0602 32.24H49.3402C46.7802 32.24 44.7162 31.504 43.1482 30.032C41.8682 28.848 41.0682 27.184 40.7482 25.04H45.0202C45.1802 25.808 45.5002 26.432 45.9802 26.912C46.7162 27.616 47.7402 27.968 49.0522 27.968C49.4042 27.968 49.6602 27.952 49.8202 27.92C50.9402 27.856 51.8202 27.552 52.4602 27.008C53.1002 26.432 53.4202 25.728 53.4202 24.896C53.4202 23.744 53.0682 22.992 52.3642 22.64C51.6602 22.288 50.3002 22.112 48.2842 22.112C45.7562 22.112 43.8202 21.312 42.4762 19.712C41.3882 18.496 40.8442 16.96 40.8442 15.104C40.8442 14.688 40.8602 14.368 40.8922 14.144C41.1482 12.064 41.9962 10.48 43.4362 9.392C44.9082 8.272 46.8442 7.712 49.2442 7.712C51.0042 7.712 52.5402 8.096 53.8522 8.864C54.7802 9.44 55.5802 10.24 56.2522 11.264C56.8922 12.288 57.3082 13.568 57.5002 15.104L57.4042 15.152H53.3242ZM72.6254 42.224C68.8174 42.224 65.5214 40.528 62.7374 37.136L66.5294 34.88C68.2574 36.896 70.2894 37.904 72.6254 37.904C73.6814 37.904 74.6894 37.696 75.6494 37.28C76.6094 36.864 77.4414 36.288 78.1454 35.552C78.8494 34.816 79.3934 33.968 79.7774 33.008C80.1934 32.048 80.4014 31.04 80.4014 29.984V28.832C78.2254 31.264 75.6174 32.48 72.5774 32.48C70.9454 32.48 69.3774 32.144 67.8734 31.472C66.4014 30.768 65.1214 29.824 64.0334 28.64C62.9454 27.456 62.0814 26.112 61.4414 24.608C60.8334 23.104 60.5294 21.552 60.5294 19.952C60.5294 18.32 60.8334 16.784 61.4414 15.344C62.0814 13.872 62.9614 12.576 64.0814 11.456C65.2014 10.368 66.4814 9.52 67.9214 8.912C69.3934 8.304 70.9454 8 72.5774 8C74.3374 8 75.9054 8.384 77.2814 9.152C78.6574 9.92 79.6974 10.784 80.4014 11.744V8.432H84.7214V29.984C84.7214 31.648 84.4014 33.216 83.7614 34.688C83.1534 36.16 82.2894 37.472 81.1694 38.624C80.0814 39.744 78.7854 40.624 77.2814 41.264C75.8094 41.904 74.2574 42.224 72.6254 42.224ZM72.5774 12.368C71.5214 12.368 70.5134 12.576 69.5534 12.992C68.5934 13.376 67.7614 13.936 67.0574 14.672C66.3534 15.408 65.7934 16.272 65.3774 17.264C64.9614 18.224 64.7534 19.232 64.7534 20.288C64.7534 21.344 64.9614 22.368 65.3774 23.36C65.7934 24.32 66.3534 25.152 67.0574 25.856C67.7614 26.56 68.5934 27.12 69.5534 27.536C70.5134 27.952 71.5214 28.16 72.5774 28.16C73.6334 28.16 74.6414 27.952 75.6014 27.536C76.5614 27.12 77.3934 26.56 78.0974 25.856C78.8014 25.152 79.3454 24.32 79.7294 23.36C80.1454 22.368 80.3534 21.344 80.3534 20.288C80.3534 19.232 80.1454 18.224 79.7294 17.264C79.3454 16.272 78.8014 15.408 78.0974 14.672C77.3934 13.936 76.5614 13.376 75.6014 12.992C74.6414 12.576 73.6334 12.368 72.5774 12.368ZM101.173 32.24C99.5414 32.24 97.9894 31.92 96.5174 31.28C95.0454 30.64 93.7494 29.76 92.6294 28.64C91.5094 27.52 90.6294 26.224 89.9894 24.752C89.3494 23.28 89.0294 21.728 89.0294 20.096C89.0294 18.432 89.3494 16.848 89.9894 15.344C90.6294 13.84 91.5094 12.528 92.6294 11.408C93.7494 10.288 95.0454 9.424 96.5174 8.816C97.9894 8.176 99.5414 7.856 101.173 7.856C102.837 7.856 104.421 8.176 105.925 8.816C107.429 9.424 108.741 10.288 109.861 11.408C110.981 12.528 111.845 13.84 112.453 15.344C113.093 16.848 113.413 18.432 113.413 20.096C113.413 21.728 113.093 23.28 112.453 24.752C111.845 26.224 110.981 27.52 109.861 28.64C108.741 29.76 107.429 30.64 105.925 31.28C104.421 31.92 102.837 32.24 101.173 32.24ZM101.173 12.128C99.0294 12.128 97.1894 12.896 95.6534 14.432C94.9174 15.168 94.3414 16.032 93.9254 17.024C93.5094 18.016 93.3014 19.04 93.3014 20.096C93.3014 21.152 93.5094 22.16 93.9254 23.12C94.3414 24.08 94.9174 24.928 95.6534 25.664C96.3894 26.4 97.2214 26.976 98.1494 27.392C99.1094 27.808 100.117 28.016 101.173 28.016C102.229 28.016 103.253 27.808 104.245 27.392C105.237 26.976 106.085 26.4 106.789 25.664C107.493 24.928 108.053 24.08 108.469 23.12C108.885 22.16 109.093 21.152 109.093 20.096C109.093 19.04 108.885 18.016 108.469 17.024C108.053 16.032 107.493 15.168 106.789 14.432C106.085 13.696 105.237 13.136 104.245 12.752C103.285 12.336 102.261 12.128 101.173 12.128Z" fill="#0CC0DF"/>
</svg>
