<svg width="34" height="38" viewBox="0 0 34 38" fill="none" xmlns="http://www.w3.org/2000/svg">
<path d="M24.8008 25.5381L3.74121 37.5059C2.698 38.0974 1.75266 38.1378 1.07324 37.7285L19.0312 19.7686L24.8008 25.5381ZM18.3242 19.0615L0.382812 37.0049C0.138956 36.5761 1.7724e-06 36.0185 0 35.3457V2.77931C3.4351e-05 2.10736 0.13777 1.54829 0.381836 1.11915L18.3242 19.0615ZM32.457 16.9375C34.5141 18.1067 34.5141 20.0198 32.457 21.1904L25.7031 25.0264L19.7383 19.0615L25.7002 13.0977L32.457 16.9375ZM1.07227 0.395519C1.75167 -0.0137551 2.69818 0.0284679 3.74121 0.621105L24.7988 12.5859L19.0312 18.3545L1.07227 0.395519Z" fill="#0CC0DF"/>
</svg>
