<svg width="81" height="80" viewBox="0 0 81 80" fill="none" xmlns="http://www.w3.org/2000/svg">
<path d="M59.9951 60.0176C60.1414 66.3399 53.2403 70.3242 47.8381 67.0364L37.1586 60.5368C35.8516 59.7414 34.344 59.3374 32.8145 59.3728L20.3158 59.6619C13.9936 59.8081 10.0092 52.907 13.297 47.5049L19.7967 36.8253C20.5921 35.5184 20.996 34.0107 20.9607 32.4812L20.6716 19.9826C20.5253 13.6603 27.4264 9.67598 32.8286 12.9637L43.5081 19.4634C44.8151 20.2588 46.3227 20.6628 47.8523 20.6274L60.3509 20.3383C66.6731 20.1921 70.6575 27.0932 67.3697 32.4953L60.87 43.1749C60.0746 44.4818 59.6707 45.9894 59.706 47.519L59.9951 60.0176Z" fill="url(#paint0_linear_1_771)"/>
<g clip-path="url(#clip0_1_771)">
<path d="M40.3334 30.163C43.5374 30.163 43.9174 30.175 45.1834 30.233C48.4354 30.381 49.9544 31.924 50.1024 35.152C50.1604 36.417 50.1714 36.797 50.1714 40.001C50.1714 43.206 50.1594 43.585 50.1024 44.85C49.9534 48.075 48.4384 49.621 45.1834 49.769C43.9174 49.827 43.5394 49.839 40.3334 49.839C37.1294 49.839 36.7494 49.827 35.4844 49.769C32.2244 49.62 30.7134 48.07 30.5654 44.849C30.5074 43.584 30.4954 43.205 30.4954 40C30.4954 36.796 30.5084 36.417 30.5654 35.151C30.7144 31.924 32.2294 30.38 35.4844 30.232C36.7504 30.175 37.1294 30.163 40.3334 30.163ZM40.3334 28C37.0744 28 36.6664 28.014 35.3864 28.072C31.0284 28.272 28.6064 30.69 28.4064 35.052C28.3474 36.333 28.3334 36.741 28.3334 40C28.3334 43.259 28.3474 43.668 28.4054 44.948C28.6054 49.306 31.0234 51.728 35.3854 51.928C36.6664 51.986 37.0744 52 40.3334 52C43.5924 52 44.0014 51.986 45.2814 51.928C49.6354 51.728 52.0634 49.31 52.2604 44.948C52.3194 43.668 52.3334 43.259 52.3334 40C52.3334 36.741 52.3194 36.333 52.2614 35.053C52.0654 30.699 49.6444 28.273 45.2824 28.073C44.0014 28.014 43.5924 28 40.3334 28ZM40.3334 33.838C36.9304 33.838 34.1714 36.597 34.1714 40C34.1714 43.403 36.9304 46.163 40.3334 46.163C43.7364 46.163 46.4954 43.404 46.4954 40C46.4954 36.597 43.7364 33.838 40.3334 33.838ZM40.3334 44C38.1244 44 36.3334 42.21 36.3334 40C36.3334 37.791 38.1244 36 40.3334 36C42.5424 36 44.3334 37.791 44.3334 40C44.3334 42.21 42.5424 44 40.3334 44ZM46.7394 32.155C45.9434 32.155 45.2984 32.8 45.2984 33.595C45.2984 34.39 45.9434 35.035 46.7394 35.035C47.5344 35.035 48.1784 34.39 48.1784 33.595C48.1784 32.8 47.5344 32.155 46.7394 32.155Z" fill="white"/>
</g>
<defs>
<linearGradient id="paint0_linear_1_771" x1="60.3333" y1="74.6411" x2="20.3333" y2="5.35908" gradientUnits="userSpaceOnUse">
<stop stop-color="#FFE633"/>
<stop offset="0.25" stop-color="#FA7E1E"/>
<stop offset="0.495192" stop-color="#D62976"/>
<stop offset="0.75" stop-color="#962FBF"/>
<stop offset="1" stop-color="#4F5BD5"/>
</linearGradient>
<clipPath id="clip0_1_771">
<rect width="24" height="24" fill="white" transform="translate(28.3334 28)"/>
</clipPath>
</defs>
</svg>
