<svg width="24" height="24" viewBox="0 0 24 24" fill="none" xmlns="http://www.w3.org/2000/svg">
<g clip-path="url(#clip0_1_822)">
<path d="M0.566625 8.34788C0.199031 9.4995 -4.68667e-05 10.7264 8.276e-09 11.9999C-4.68667e-05 13.2735 0.199078 14.5005 0.566672 15.6521L12 16.1739L23.4333 15.6522C23.8009 14.5005 24 13.2735 24 12C24 10.7264 23.8009 9.4995 23.4333 8.34783L12 7.82611L0.566625 8.34788Z" fill="#F0F0F0"/>
<path d="M23.4333 8.34788L12 7.82616L0.566622 8.34788C0.457685 8.68931 0.363888 9.03745 0.285278 9.39136H23.7145C23.636 9.03741 23.5423 8.68922 23.4333 8.34788Z" fill="#D80027"/>
<path d="M0.2854 14.6086C0.363916 14.9625 0.457713 15.3106 0.56665 15.6521L0.567775 15.6521L11.9999 16.1738L23.4333 15.6521C23.5422 15.3107 23.636 14.9625 23.7146 14.6086H0.2854Z" fill="#D80027"/>
<path d="M11.9999 24C17.3538 24 21.888 20.4936 23.4333 15.6521H0.56665C2.11188 20.4935 6.6462 24 11.9999 24Z" fill="#6DA544"/>
<path d="M12 4.57768e-05C6.6462 9.26518e-05 2.11198 3.50648 0.56665 8.34787L23.4333 8.34792C21.8881 3.50644 17.3539 -1.09816e-06 12 4.57768e-05Z" fill="#338AF3"/>
<path d="M5.48376 4.95664C5.48376 3.83272 6.27365 2.89381 7.32848 2.66347C7.16638 2.62803 6.99815 2.60886 6.82537 2.60886C5.52871 2.60886 4.47754 3.65998 4.47754 4.95669C4.47754 6.25339 5.52862 7.30452 6.82537 7.30452C6.99815 7.30452 7.16634 7.2853 7.32848 7.24991C6.2737 7.01947 5.48376 6.08056 5.48376 4.95664Z" fill="#F0F0F0"/>
<path d="M8.71616 6.02377L8.87507 6.51291H9.38938L8.97331 6.81525L9.13222 7.30439L8.71616 7.00209L8.3 7.30439L8.45896 6.81525L8.04285 6.51291H8.55716L8.71616 6.02377Z" fill="#F0F0F0"/>
<path d="M10.3577 6.02377L10.5166 6.51291H11.0309L10.6148 6.81525L10.7738 7.30439L10.3577 7.00209L9.94156 7.30439L10.1005 6.81525L9.68445 6.51291H10.1987L10.3577 6.02377Z" fill="#F0F0F0"/>
<path d="M11.9994 6.02377L12.1583 6.51291H12.6726L12.2565 6.81525L12.4154 7.30439L11.9994 7.00209L11.5832 7.30439L11.7422 6.81525L11.326 6.51291H11.8404L11.9994 6.02377Z" fill="#F0F0F0"/>
<path d="M13.641 6.02377L13.7999 6.51291H14.3142L13.8981 6.81525L14.0571 7.30439L13.641 7.00209L13.2248 7.30439L13.3838 6.81525L12.9677 6.51291H13.482L13.641 6.02377Z" fill="#F0F0F0"/>
<path d="M15.2825 6.02377L15.4414 6.51291H15.9557L15.5397 6.81525L15.6986 7.30439L15.2825 7.00209L14.8664 7.30439L15.0253 6.81525L14.6093 6.51291H15.1235L15.2825 6.02377Z" fill="#F0F0F0"/>
<path d="M10.3577 4.31625L10.5166 4.80534H11.0309L10.6148 5.10773L10.7738 5.59683L10.3577 5.29453L9.94156 5.59683L10.1005 5.10773L9.68445 4.80534H10.1987L10.3577 4.31625Z" fill="#F0F0F0"/>
<path d="M11.9994 4.31625L12.1583 4.80534H12.6726L12.2565 5.10773L12.4154 5.59683L11.9994 5.29453L11.5832 5.59683L11.7422 5.10773L11.326 4.80534H11.8404L11.9994 4.31625Z" fill="#F0F0F0"/>
<path d="M13.641 4.31625L13.7999 4.80534H14.3142L13.8981 5.10773L14.0571 5.59683L13.641 5.29453L13.2248 5.59683L13.3838 5.10773L12.9677 4.80534H13.482L13.641 4.31625Z" fill="#F0F0F0"/>
<path d="M15.2825 4.31625L15.4414 4.80534H15.9557L15.5397 5.10773L15.6986 5.59683L15.2825 5.29453L14.8664 5.59683L15.0253 5.10773L14.6093 4.80534H15.1235L15.2825 4.31625Z" fill="#F0F0F0"/>
<path d="M11.9994 2.60869L12.1583 3.09788H12.6726L12.2565 3.40017L12.4154 3.88936L11.9994 3.58706L11.5832 3.88936L11.7422 3.40017L11.326 3.09788H11.8404L11.9994 2.60869Z" fill="#F0F0F0"/>
<path d="M13.641 2.60869L13.7999 3.09788H14.3142L13.8981 3.40017L14.0571 3.88936L13.641 3.58706L13.2248 3.88936L13.3838 3.40017L12.9677 3.09788H13.482L13.641 2.60869Z" fill="#F0F0F0"/>
<path d="M15.2825 2.60869L15.4414 3.09788H15.9557L15.5397 3.40017L15.6986 3.88936L15.2825 3.58706L14.8664 3.88936L15.0253 3.40017L14.6093 3.09788H15.1235L15.2825 2.60869Z" fill="#F0F0F0"/>
</g>
<defs>
<clipPath id="clip0_1_822">
<rect width="24" height="24" fill="white"/>
</clipPath>
</defs>
</svg>
