<svg width="80" height="80" viewBox="0 0 80 80" fill="none" xmlns="http://www.w3.org/2000/svg">
<path d="M11.9425 39.7484C7.36859 35.3812 9.43105 27.6841 15.5757 26.189L27.7233 23.2334C29.2099 22.8716 30.5616 22.0912 31.6181 20.9847L40.2516 11.9424C44.6187 7.36849 52.3158 9.43095 53.8109 15.5756L56.7666 27.7232C57.1283 29.2098 57.9087 30.5615 59.0152 31.618L68.0575 40.2515C72.6314 44.6186 70.569 52.3157 64.4243 53.8108L52.2767 56.7665C50.7901 57.1282 49.4384 57.9086 48.3819 59.0151L39.7485 68.0574C35.3813 72.6313 27.6842 70.5689 26.1891 64.4242L23.2335 52.2766C22.8717 50.79 22.0913 49.4383 20.9848 48.3818L11.9425 39.7484Z" fill="#C48DFF"/>
<path d="M38.192 48.264C37.048 48.264 35.9847 48.11 35.002 47.802C34.034 47.494 33.2127 47.054 32.538 46.482L34.254 43.864C34.7527 44.304 35.3613 44.6487 36.08 44.898C36.8133 45.1473 37.5907 45.272 38.412 45.272C39.468 45.272 40.282 45.074 40.854 44.678C41.426 44.282 41.712 43.732 41.712 43.028C41.712 42.4853 41.4847 42.06 41.03 41.752C40.5753 41.4293 39.8053 41.268 38.72 41.268H34.54L37.048 32.6H46.464L45.87 35.46H37.752L39.952 33.832L38.148 40.014L36.608 38.386H39.556C41.4773 38.386 42.9147 38.76 43.868 39.508C44.836 40.256 45.32 41.29 45.32 42.61C45.32 43.754 45.012 44.7513 44.396 45.602C43.7947 46.4527 42.9587 47.1127 41.888 47.582C40.8173 48.0367 39.5853 48.264 38.192 48.264Z" fill="white"/>
</svg>
