<svg width="80" height="80" viewBox="0 0 80 80" fill="none" xmlns="http://www.w3.org/2000/svg">
<path d="M24.5495 18.5251C25.2734 11.934 33.2408 9.03414 38.032 13.6179L42.4737 17.8672C44.3763 19.6874 47.0527 20.4549 49.6307 19.9195L55.6493 18.6695C62.1415 17.3213 67.3615 24.0026 64.4827 29.9757L61.8139 35.5132C60.6707 37.8851 60.7678 40.6677 62.0737 42.9541L65.1223 48.2918C68.4108 54.0496 63.6695 61.0788 57.0991 60.1867L51.008 59.3596C48.3989 59.0054 45.7825 59.9577 44.0116 61.9061L39.8771 66.455C35.4174 71.3618 27.2671 69.0247 26.0852 62.5002L24.9895 56.4516C24.5201 53.8608 22.806 51.6667 20.4056 50.5845L14.8018 48.0581C8.75701 45.3329 8.46111 36.8593 14.301 33.7191L19.715 30.8079C22.034 29.5609 23.591 27.2527 23.8784 24.6353L24.5495 18.5251Z" fill="#F49EFF"/>
<path d="M33.038 48L33.5 45.69L40.518 40.19C41.1047 39.7207 41.5593 39.31 41.882 38.958C42.2193 38.606 42.454 38.276 42.586 37.968C42.718 37.6453 42.784 37.3153 42.784 36.978C42.784 36.4647 42.5933 36.054 42.212 35.746C41.8307 35.438 41.266 35.284 40.518 35.284C39.902 35.284 39.308 35.4233 38.736 35.702C38.1787 35.9807 37.68 36.3767 37.24 36.89L34.842 35.152C35.4727 34.3013 36.3307 33.6193 37.416 33.106C38.5013 32.5927 39.7113 32.336 41.046 32.336C42.1313 32.336 43.0773 32.5193 43.884 32.886C44.6907 33.238 45.314 33.722 45.754 34.338C46.2087 34.954 46.436 35.6653 46.436 36.472C46.436 37.0733 46.326 37.66 46.106 38.232C45.886 38.804 45.5193 39.3907 45.006 39.992C44.5073 40.5787 43.8033 41.224 42.894 41.928L37.13 46.394L36.558 45.096H45.27L44.698 48H33.038Z" fill="white"/>
</svg>
