<svg width="80" height="80" viewBox="0 0 80 80" fill="none" xmlns="http://www.w3.org/2000/svg">
<path d="M26.4404 18.7995C26.3999 13.3159 33.2661 10.8168 36.7599 15.0435C38.96 17.7053 42.9791 17.8808 45.4029 15.4209C49.2517 11.5147 55.874 14.6028 55.3557 20.062C55.0293 23.4999 57.7472 26.4659 61.2004 26.4404C66.684 26.3998 69.1831 33.2661 64.9564 36.7598C62.2946 38.9599 62.1191 42.9791 64.579 45.4028C68.4852 49.2516 65.3972 55.874 59.938 55.3556C56.5001 55.0292 53.534 57.7471 53.5596 61.2003C53.6001 66.6839 46.7339 69.1831 43.2402 64.9563C41.04 62.2945 37.0209 62.119 34.5971 64.5789C30.7483 68.4851 24.126 65.3971 24.6443 59.9379C24.9707 56.5 22.2528 53.5339 18.7996 53.5595C13.316 53.6 10.8169 46.7338 15.0436 43.2401C17.7054 41.0399 17.8809 37.0208 15.421 34.597C11.5148 30.7482 14.6028 24.1259 20.062 24.6442C23.4999 24.9706 26.466 22.2528 26.4404 18.7995Z" fill="#FFC881"/>
<path d="M32.154 44.766L32.616 42.368L41.68 32.6H45.574L36.664 42.368L34.86 41.862H47.026L46.432 44.766H32.154ZM39.788 48L40.448 44.766L41.174 41.862L41.746 38.98H45.068L43.264 48H39.788Z" fill="white"/>
</svg>
