<svg width="80" height="80" viewBox="0 0 80 80" fill="none" xmlns="http://www.w3.org/2000/svg">
<path d="M25.1187 20.516C25.5788 13.577 34.0629 10.489 38.8758 15.5089L39.4199 16.0764C41.8332 18.5935 45.5988 19.2574 48.7274 17.7176L49.4329 17.3704C55.6723 14.2993 62.5887 20.1028 60.6478 26.7808L60.4283 27.5358C59.4551 30.8843 60.7629 34.4774 63.6608 36.4169L64.3142 36.8542C70.0935 40.7223 68.5257 49.6137 61.772 51.2718L61.0084 51.4593C57.6219 52.2907 55.1641 55.2199 54.9334 58.6992L54.8814 59.4838C54.4212 66.4229 45.9371 69.5108 41.1242 64.491L40.5801 63.9234C38.1668 61.4064 34.4012 60.7424 31.2726 62.2823L30.5671 62.6295C24.3277 65.7005 17.4113 59.897 19.3522 53.219L19.5717 52.464C20.5449 49.1156 19.2371 45.5224 16.3392 43.5829L15.6858 43.1456C9.90647 39.2776 11.4743 30.3861 18.228 28.728L18.9916 28.5405C22.3781 27.7091 24.8359 24.78 25.0666 21.3006L25.1187 20.516Z" fill="#B3FF75"/>
<path d="M37.884 48.264C36.7547 48.264 35.6987 48.11 34.716 47.802C33.7333 47.494 32.912 47.054 32.252 46.482L33.968 43.864C34.4667 44.304 35.0753 44.6487 35.794 44.898C36.5273 45.1473 37.3047 45.272 38.126 45.272C38.83 45.272 39.424 45.184 39.908 45.008C40.4067 44.832 40.7807 44.5753 41.03 44.238C41.294 43.9007 41.426 43.5047 41.426 43.05C41.426 42.4927 41.2133 42.082 40.788 41.818C40.3773 41.5393 39.7467 41.4 38.896 41.4H37.268L37.73 39.046L42.922 34.184L43.164 35.46H35.046L35.64 32.6H46.42L45.98 34.91L40.788 39.772L39.116 38.76H39.908C40.9787 38.76 41.8953 38.9287 42.658 39.266C43.4207 39.5887 44.0073 40.058 44.418 40.674C44.8287 41.2753 45.034 41.994 45.034 42.83C45.034 43.8713 44.726 44.8027 44.11 45.624C43.5087 46.4453 42.6653 47.0907 41.58 47.56C40.5093 48.0293 39.2773 48.264 37.884 48.264Z" fill="white"/>
</svg>
