<svg width="30" height="30" viewBox="0 0 30 30" fill="none" xmlns="http://www.w3.org/2000/svg">
<g clip-path="url(#paint0_diamond_1_654_clip_path)" data-figma-skip-parse="true"><g transform="matrix(2.32683e-10 0.007375 -0.007375 2.3268e-10 15 15.5)"><rect x="0" y="0" width="2237.29" height="2169.49" fill="url(#paint0_diamond_1_654)" opacity="1" shape-rendering="crispEdges"/><rect x="0" y="0" width="2237.29" height="2169.49" transform="scale(1 -1)" fill="url(#paint0_diamond_1_654)" opacity="1" shape-rendering="crispEdges"/><rect x="0" y="0" width="2237.29" height="2169.49" transform="scale(-1 1)" fill="url(#paint0_diamond_1_654)" opacity="1" shape-rendering="crispEdges"/><rect x="0" y="0" width="2237.29" height="2169.49" transform="scale(-1)" fill="url(#paint0_diamond_1_654)" opacity="1" shape-rendering="crispEdges"/></g></g><path d="M15 0L15.0538 1.46835C15.3224 8.7978 21.2022 14.6776 28.5316 14.9462L30 15L28.5316 15.0538C21.2022 15.3224 15.3224 21.2022 15.0538 28.5316L15 30L14.9462 28.5316C14.6776 21.2022 8.7978 15.3224 1.46835 15.0538L0 15L1.46835 14.9462C8.7978 14.6776 14.6776 8.7978 14.9462 1.46835L15 0Z" data-figma-gradient-fill="{&#34;type&#34;:&#34;GRADIENT_DIAMOND&#34;,&#34;stops&#34;:[{&#34;color&#34;:{&#34;r&#34;:1.0,&#34;g&#34;:1.0,&#34;b&#34;:1.0,&#34;a&#34;:1.0},&#34;position&#34;:0.0},{&#34;color&#34;:{&#34;r&#34;:1.0,&#34;g&#34;:0.87058824300765991,&#34;b&#34;:0.34901961684226990,&#34;a&#34;:1.0},&#34;position&#34;:1.0}],&#34;stopsVar&#34;:[{&#34;color&#34;:{&#34;r&#34;:1.0,&#34;g&#34;:1.0,&#34;b&#34;:1.0,&#34;a&#34;:1.0},&#34;position&#34;:0.0},{&#34;color&#34;:{&#34;r&#34;:1.0,&#34;g&#34;:0.87058824300765991,&#34;b&#34;:0.34901961684226990,&#34;a&#34;:1.0},&#34;position&#34;:1.0}],&#34;transform&#34;:{&#34;m00&#34;:4.6536629838556109e-07,&#34;m01&#34;:-14.750002861022949,&#34;m02&#34;:22.375001907348633,&#34;m10&#34;:14.750002861022949,&#34;m11&#34;:4.6536089826076932e-07,&#34;m12&#34;:8.1249971389770508},&#34;opacity&#34;:1.0,&#34;blendMode&#34;:&#34;NORMAL&#34;,&#34;visible&#34;:true}"/>
<defs>
<clipPath id="paint0_diamond_1_654_clip_path"><path d="M15 0L15.0538 1.46835C15.3224 8.7978 21.2022 14.6776 28.5316 14.9462L30 15L28.5316 15.0538C21.2022 15.3224 15.3224 21.2022 15.0538 28.5316L15 30L14.9462 28.5316C14.6776 21.2022 8.7978 15.3224 1.46835 15.0538L0 15L1.46835 14.9462C8.7978 14.6776 14.6776 8.7978 14.9462 1.46835L15 0Z"/></clipPath><linearGradient id="paint0_diamond_1_654" x1="0" y1="0" x2="500" y2="500" gradientUnits="userSpaceOnUse">
<stop stop-color="white"/>
<stop offset="1" stop-color="#FFDE59"/>
</linearGradient>
</defs>
</svg>
