<svg width="80" height="80" viewBox="0 0 80 80" fill="none" xmlns="http://www.w3.org/2000/svg">
<path d="M15.302 25.1C13.7081 19.1514 19.1514 13.7081 25.1 15.302L45.1764 20.6815L65.2528 26.0609C71.2013 27.6548 73.1937 35.0905 68.8391 39.4452L54.1421 54.1421L39.4452 68.8391C35.0906 73.1937 27.6548 71.2013 26.0609 65.2528L20.6815 45.1764L15.302 25.1Z" fill="#2AABEE"/>
<path fill-rule="evenodd" clip-rule="evenodd" d="M31.3062 38.9054C36.4064 36.6833 39.8074 35.2184 41.5091 34.5106C46.3677 32.4897 47.3773 32.1387 48.0354 32.1271C48.1801 32.1245 48.5037 32.1604 48.7133 32.3305C48.8903 32.4741 48.939 32.6681 48.9623 32.8043C48.9856 32.9404 49.0146 33.2506 48.9916 33.493C48.7283 36.2595 47.589 42.9729 47.0094 46.0713C46.7642 47.3824 46.2813 47.822 45.8138 47.865C44.7978 47.9585 44.0263 47.1936 43.0422 46.5485C41.5024 45.5391 40.6325 44.9108 39.1378 43.9258C37.4105 42.7876 38.5303 42.1619 39.5147 41.1395C39.7723 40.8719 44.2488 36.8002 44.3354 36.4308C44.3463 36.3846 44.3563 36.2124 44.254 36.1215C44.1517 36.0306 44.0007 36.0617 43.8918 36.0864C43.7373 36.1215 41.2775 37.7474 36.5121 40.9641C35.8139 41.4436 35.1815 41.6772 34.6148 41.6649C33.9901 41.6514 32.7885 41.3117 31.8952 41.0213C30.7996 40.6652 29.9288 40.4769 30.0046 39.872C30.0441 39.557 30.4779 39.2348 31.3062 38.9054Z" fill="white"/>
</svg>
